Coordinates
version=1
nRows=8
nColumns=40
inDegrees=yes

Units are S.I. units (second, meters, Newtons, ...)
If the header above contains a line with 'inDegrees', this indicates whether rotational values are in degrees (yes) or radians (no).

endheader
time	pelvis_tilt	pelvis_list	pelvis_rotation	pelvis_tx	pelvis_ty	pelvis_tz	hip_flexion_r	hip_adduction_r	hip_rotation_r	knee_angle_r	knee_angle_r_beta	ankle_angle_r	subtalar_angle_r	mtp_angle_r	hip_flexion_l	hip_adduction_l	hip_rotation_l	knee_angle_l	knee_angle_l_beta	ankle_angle_l	subtalar_angle_l	mtp_angle_l	lumbar_extension	lumbar_bending	lumbar_rotation	arm_flex_r	arm_add_r	arm_rot_r	elbow_flex_r	pro_sup_r	wrist_flex_r	wrist_dev_r	arm_flex_l	arm_add_l	arm_rot_l	elbow_flex_l	pro_sup_l	wrist_flex_l	wrist_dev_l
      5.20000000	    -29.00351716	      6.52076585	     -6.63853243	     -0.37790302	      0.84684837	     -1.06775442	     19.62635961	     -5.95946418	      6.86017549	     72.20398311	      1.26019724	     16.37048448	      0.00000000	      0.00000000	     69.55817597	     -0.43532041	    -10.11068088	     70.49155960	      1.23030981	     17.42142047	      0.00000000	      0.00000000	      3.75233117	    -14.15885134	     12.22258763	     89.97163577	     -9.11987969	     10.94044723	     50.94541597	     33.65506099	      0.00000000	      0.00000000	     89.96866329	    -15.57439631	      8.20600468	     54.64977951	     66.05620231	      0.00000000	      0.00000000
      5.20500000	    -28.96087944	      6.57975789	     -6.58377587	     -0.37779814	      0.84637936	     -1.06775375	     19.53987853	     -6.02053910	      6.80964065	     72.17592765	      1.25970758	     16.38685406	      0.00000000	      0.00000000	     69.55265565	     -0.33958980	    -10.14285724	     70.55990400	      1.23150264	     17.45900006	      0.00000000	      0.00000000	      3.66363307	    -14.27295269	     12.20718314	     89.97164730	     -9.20682915	     10.90746331	     50.90928531	     34.93677854	      0.00000000	      0.00000000	     89.96869379	    -15.48392027	      8.34846198	     54.78364409	     63.55671232	      0.00000000	      0.00000000
      5.21000000	    -29.03353856	      6.57256667	     -6.61753657	     -0.37800844	      0.84565480	     -1.06750591	     19.62876430	     -5.94200489	      6.83989716	     72.21818344	      1.26044508	     16.36651531	      0.00000000	      0.00000000	     69.70368977	     -0.41590606	    -10.14422118	     70.69404776	      1.23384389	     17.52249627	      0.00000000	      0.00000000	      3.71029799	    -14.27946696	     12.27561312	     89.97167880	     -9.21939300	     10.81970610	     50.90688961	     35.97866140	      0.00000000	      0.00000000	     89.96874387	    -15.43464588	      8.47042359	     54.93069527	     61.49389250	      0.00000000	      0.00000000
      5.21500000	    -29.04398484	      6.48638017	     -6.61748248	     -0.37808108	      0.84511569	     -1.06732268	     19.62399511	     -5.80620346	      6.80062917	     72.22036157	      1.26048310	     16.13412124	      0.00000000	      0.00000000	     69.79620886	     -0.47140631	    -10.04080160	     70.84603299	      1.23649654	     17.34332723	      0.00000000	      0.00000000	      3.67693693	    -14.19519460	     12.23662303	     89.97183839	     -9.06879782	     10.65000536	     50.78496425	     36.94210515	      0.00000000	      0.00000000	     89.96871792	    -15.40291385	      8.45349762	     54.89986352	     59.50854737	      0.00000000	      0.00000000
      5.22000000	    -29.23936691	      6.31586695	     -6.53815092	     -0.37859694	      0.84425163	     -1.06717657	     19.81277197	     -5.54686201	      6.71766791	     72.25594490	      1.26110414	     16.04543652	      0.00000000	      0.00000000	     70.13616115	     -0.52576943	     -9.80826031	     71.04110769	      1.23990123	     17.32485662	      0.00000000	      0.00000000	      3.79155683	    -14.04268768	     12.17706496	     89.97192646	     -9.07133201	     10.46347763	     50.77655507	     38.21178715	      0.00000000	      0.00000000	     89.96881006	    -15.32429047	      8.52170245	     55.06947664	     56.91737838	      0.00000000	      0.00000000
      5.22500000	    -29.15782311	      6.49069081	     -6.60320233	     -0.37830586	      0.84376917	     -1.06699359	     19.72219841	     -5.71015698	      6.80190129	     72.27691955	      1.26147022	     16.14960833	      0.00000000	      0.00000000	     70.05225055	     -0.50419803	    -10.03034936	     71.12310188	      1.24133230	     17.65937994	      0.00000000	      0.00000000	      3.68885053	    -14.17684430	     12.14765128	     89.97184306	     -8.86433185	     11.04396964	     51.75825870	     26.20193045	      0.00000000	      0.00000000	     89.96886693	    -15.68540820	      7.37741671	     54.53629061	     73.97439004	      0.00000000	      0.00000000
      5.23000000	    -29.15937083	      6.46304068	     -6.58116548	     -0.37839523	      0.84323216	     -1.06694345	     19.69881777	     -5.65212779	      6.76407172	     72.28437196	      1.26160029	     16.14885222	      0.00000000	      0.00000000	     70.11747738	     -0.50280503	     -9.98366781	     71.24534118	      1.24346578	     17.76686704	      0.00000000	      0.00000000	      3.63646303	    -14.16735683	     12.21302944	     89.97189920	     -8.93177516	     10.81816956	     51.63205985	     28.55222339	      0.00000000	      0.00000000	     89.96889764	    -15.57518708	      7.62899592	     54.61064270	     70.52788038	      0.00000000	      0.00000000
      5.23500000	    -29.22187481	      6.44011214	     -6.62080275	     -0.37856913	      0.84257882	     -1.06675951	     19.77805988	     -5.56068993	      6.79897290	     72.34327152	      1.26262828	     16.06214694	      0.00000000	      0.00000000	     70.26493498	     -0.52673038	     -9.88409765	     71.37086144	      1.24565652	     17.79394024	      0.00000000	      0.00000000	      3.67518659	    -14.15570723	     12.30942188	     89.97193074	     -8.97495431	     10.72920052	     51.53628675	     30.52981868	      0.00000000	      0.00000000	     89.96892820	    -15.47921905	      7.80714691	     54.70092945	     67.52057513	      0.00000000	      0.00000000
